<mxfile host="app.diagrams.net" modified="2023-10-22T13:26:20.343Z" agent="Mozilla/5.0 (Windows NT 10.0; Win64; x64) AppleWebKit/537.36 (KHTML, like Gecko) Chrome/118.0.0.0 Safari/537.36" etag="fGZeMX008tW8Tf09xOQ5" version="22.0.6" type="device">
  <diagram name="PÃ¡gina-1" id="0EIhsRA023p-39NC8x5s">
    <mxGraphModel dx="1050" dy="534" grid="1" gridSize="10" guides="1" tooltips="1" connect="1" arrows="1" fold="1" page="1" pageScale="1" pageWidth="827" pageHeight="1169" math="0" shadow="0">
      <root>
        <mxCell id="0" />
        <mxCell id="1" parent="0" />
        <mxCell id="GyvPgcwvYtfAbtiNx6aq-1" value="&lt;p style=&quot;margin:0px;margin-top:6px;text-align:center;&quot;&gt;&lt;b&gt;iPhone&lt;/b&gt;&lt;/p&gt;&lt;hr&gt;&lt;p style=&quot;margin:0px;margin-left:8px;&quot;&gt;- modelo: String&amp;nbsp;&lt;/p&gt;&lt;p style=&quot;margin:0px;margin-left:8px;&quot;&gt;- capacidade: int&amp;nbsp;&lt;/p&gt;&lt;p style=&quot;margin:0px;margin-left:8px;&quot;&gt;- bateria: double&amp;nbsp;&lt;/p&gt;&lt;p style=&quot;margin:0px;margin-left:8px;&quot;&gt;- ligado: boolean   &lt;br&gt;&lt;/p&gt;&lt;p style=&quot;margin:0px;margin-left:8px;&quot;&gt;----------------------------------------------&lt;/p&gt;&lt;p style=&quot;margin:0px;margin-left:8px;&quot;&gt; + ligar(): void&amp;nbsp;&lt;/p&gt;&lt;p style=&quot;margin:0px;margin-left:8px;&quot;&gt;+ desligar(): void&amp;nbsp;&lt;/p&gt;&lt;p style=&quot;margin:0px;margin-left:8px;&quot;&gt;+ tocarMusica(): void +&amp;nbsp;fazerChamada(): void&amp;nbsp;&lt;/p&gt;&lt;p style=&quot;margin:0px;margin-left:8px;&quot;&gt;+ navegarInternet(): void &lt;br&gt;&lt;/p&gt;" style="align=left;overflow=fill;html=1;dropTarget=0;whiteSpace=wrap;" vertex="1" parent="1">
          <mxGeometry x="250" y="30" width="200" height="190" as="geometry" />
        </mxCell>
        <mxCell id="GyvPgcwvYtfAbtiNx6aq-2" value="" style="shape=component;jettyWidth=8;jettyHeight=4;" vertex="1" parent="GyvPgcwvYtfAbtiNx6aq-1">
          <mxGeometry x="1" width="20" height="20" relative="1" as="geometry">
            <mxPoint x="-24" y="4" as="offset" />
          </mxGeometry>
        </mxCell>
        <mxCell id="GyvPgcwvYtfAbtiNx6aq-3" value="ReproutorMusica" style="html=1;whiteSpace=wrap;" vertex="1" parent="1">
          <mxGeometry x="140" y="290" width="110" height="50" as="geometry" />
        </mxCell>
        <mxCell id="GyvPgcwvYtfAbtiNx6aq-4" value="AparelhoTelefonico" style="html=1;whiteSpace=wrap;" vertex="1" parent="1">
          <mxGeometry x="295" y="290" width="110" height="50" as="geometry" />
        </mxCell>
        <mxCell id="GyvPgcwvYtfAbtiNx6aq-5" value="NavegadorInternet" style="html=1;whiteSpace=wrap;" vertex="1" parent="1">
          <mxGeometry x="450" y="290" width="110" height="50" as="geometry" />
        </mxCell>
        <mxCell id="GyvPgcwvYtfAbtiNx6aq-7" value="" style="edgeStyle=none;orthogonalLoop=1;jettySize=auto;html=1;rounded=0;" edge="1" parent="1">
          <mxGeometry width="100" relative="1" as="geometry">
            <mxPoint x="260" y="210" as="sourcePoint" />
            <mxPoint x="218.42105263157896" y="307.5" as="targetPoint" />
            <Array as="points">
              <mxPoint x="250" y="207.5" />
              <mxPoint x="200" y="237.5" />
            </Array>
          </mxGeometry>
        </mxCell>
        <mxCell id="GyvPgcwvYtfAbtiNx6aq-8" value="" style="edgeStyle=none;orthogonalLoop=1;jettySize=auto;html=1;rounded=0;entryX=0.5;entryY=0;entryDx=0;entryDy=0;exitX=0.36;exitY=0.989;exitDx=0;exitDy=0;exitPerimeter=0;" edge="1" parent="1" source="GyvPgcwvYtfAbtiNx6aq-1" target="GyvPgcwvYtfAbtiNx6aq-4">
          <mxGeometry width="100" relative="1" as="geometry">
            <mxPoint x="300" y="250" as="sourcePoint" />
            <mxPoint x="400" y="250" as="targetPoint" />
            <Array as="points">
              <mxPoint x="350" y="260" />
            </Array>
          </mxGeometry>
        </mxCell>
        <mxCell id="GyvPgcwvYtfAbtiNx6aq-9" value="" style="edgeStyle=none;orthogonalLoop=1;jettySize=auto;html=1;rounded=0;entryX=0.5;entryY=0;entryDx=0;entryDy=0;exitX=0.36;exitY=0.989;exitDx=0;exitDy=0;exitPerimeter=0;" edge="1" parent="1">
          <mxGeometry width="100" relative="1" as="geometry">
            <mxPoint x="450" y="220" as="sourcePoint" />
            <mxPoint x="478" y="292" as="targetPoint" />
            <Array as="points">
              <mxPoint x="478" y="262" />
            </Array>
          </mxGeometry>
        </mxCell>
      </root>
    </mxGraphModel>
  </diagram>
</mxfile>
